<!DOCTYPE svg PUBLIC "-//W3C//DTD SVG 1.1//EN" "http://www.w3.org/Graphics/SVG/1.1/DTD/svg11.dtd">
<!-- Uploaded to: SVG Repo, www.svgrepo.com, Transformed by: SVG Repo Mixer Tools -->
<svg height="800px" width="800px" version="1.1" id="Layer_1" xmlns="http://www.w3.org/2000/svg" xmlns:xlink="http://www.w3.org/1999/xlink" viewBox="0 0 512 512" xml:space="preserve" fill="#000000" transform="matrix(-1, 0, 0, 1, 0, 0)">
<g id="SVGRepo_bgCarrier" stroke-width="0"/>
<g id="SVGRepo_tracerCarrier" stroke-linecap="round" stroke-linejoin="round"/>
<g id="SVGRepo_iconCarrier"> <path style="fill:#F1F2F2;" d="M375.516,413.155H93.204C41.811,413.155,0,371.344,0,319.951c0-46.829,34.71-85.703,79.757-92.238 c13.399-73.66,77.82-128.868,154.603-128.868c41.177,0,80.723,16.26,109.995,44.924C430.284,123.681,512,189.243,512,276.672 C512,351.93,450.773,413.155,375.516,413.155z"/> <g> <path style="fill:#ededed;" d="M142.809,249.761c6.025-6.464,5.669-16.589-0.795-22.613c-16.409-15.294-34.668-25.49-53.293-30.274 c-3.997,9.844-6.997,20.113-8.929,30.665c12.127,2.841,25.934,9.53,40.404,23.018C126.659,256.58,136.783,256.225,142.809,249.761z "/> <path style="fill:#ededed;" d="M344.355,143.769c-24.096-23.596-55.156-38.775-88.355-43.41v312.797h119.516 C450.773,413.155,512,351.93,512,276.672C512,189.244,430.284,123.681,344.355,143.769z"/> </g> </g>
</svg>